# xmcd CD database file
#
# Track frame offsets:
#	150
#	8222
#	38097
#	98930
#	117212
#	142017
#	170560
#	202052
#	229675
#
# Disc length: 3420 seconds
#
# Revision: 0
# Processed by: cddbd v1.5.1PL2 Copyright (c) Steve Scherf et al.
# Submitted via: CDex 1.51
#
DISCID=780d5a09
DTITLE=Frédéric Favarel - Dialogues
DYEAR=1998
DGENRE=Jazz
TTITLE0=Sleepless Part 1
TTITLE1=Rectilinear
TTITLE2=Fragments and Circles
TTITLE3=Spring Blues
TTITLE4=Intermède
TTITLE5=Pourquoi Pas?
TTITLE6=Sleepless Part 2
TTITLE7=Riddles
TTITLE8=Dialogues
EXTD=YEAR: 1998
EXTT0=
EXTT1=
EXTT2=
EXTT3=
EXTT4=
EXTT5=
EXTT6=
EXTT7=
EXTT8=
PLAYORDER=
